<svg xmlns="http://www.w3.org/2000/svg" viewBox="0 0 256 256" role="img" aria-label="Chef · Male"><rect width="256" height="256" rx="56" fill="#DEEAF4"/><circle cx="208" cy="46" r="40" fill="#fff" opacity=".22"/><circle cx="38" cy="214" r="52" fill="#fff" opacity=".14"/><path d="M70 103c0-48 24-77 58-77s58 29 58 77v32H70Z" fill="#2D211C"/><path d="M31 256c7-47 42-74 97-74s90 27 97 74Z" fill="#FFFFFF"/><rect x="108" y="158" width="40" height="40" rx="17" fill="#B87352"/><circle cx="72" cy="116" r="13" fill="#B87352"/><circle cx="184" cy="116" r="13" fill="#B87352"/><ellipse cx="128" cy="111" rx="56" ry="65" fill="#B87352"/><g><rect x="84" y="38" width="88" height="30" rx="14" fill="#fff"/><circle cx="103" cy="38" r="21" fill="#fff"/><circle cx="128" cy="30" r="24" fill="#fff"/><circle cx="153" cy="38" r="21" fill="#fff"/><rect x="88" y="60" width="80" height="15" rx="5" fill="#F1F3F5"/></g><path d="M92 101c8-5 17-5 24 0M140 101c8-5 17-5 24 0" fill="none" stroke="#3B2B25" stroke-width="4" stroke-linecap="round"/><ellipse cx="103" cy="113" rx="5.2" ry="6.2" fill="#28201D"/><ellipse cx="153" cy="113" rx="5.2" ry="6.2" fill="#28201D"/><circle cx="105" cy="111" r="1.5" fill="#fff"/><circle cx="155" cy="111" r="1.5" fill="#fff"/><path d="M128 118c-3 10-5 18-2 22 2 2 5 3 9 1" fill="none" stroke="#A9664C" stroke-width="2.5" stroke-linecap="round"/><path d="M110 147c10 9 26 9 36 0" fill="none" stroke="#A64E4B" stroke-width="4" stroke-linecap="round"/><path d="M88 133c7 29 21 44 40 44 21 0 36-16 40-45-10 13-23 20-40 20-16 0-30-7-40-19Z" fill="#2D211C" opacity=".9"/></svg>