<svg xmlns="http://www.w3.org/2000/svg" viewBox="0 0 256 256" role="img" aria-label="Owner · Female"><rect width="256" height="256" rx="56" fill="#F6E7D8"/><circle cx="208" cy="46" r="40" fill="#fff" opacity=".22"/><circle cx="38" cy="214" r="52" fill="#fff" opacity=".14"/><path d="M64 103c0-48 27-79 64-79 39 0 66 32 66 82v95c-16 18-38 28-66 28-29 0-51-10-66-28Z" fill="#3A241E"/><path d="M31 256c7-47 42-74 97-74s90 27 97 74Z" fill="#20242C"/><rect x="108" y="158" width="40" height="40" rx="17" fill="#D49470"/><circle cx="72" cy="116" r="13" fill="#D49470"/><circle cx="184" cy="116" r="13" fill="#D49470"/><ellipse cx="128" cy="111" rx="56" ry="65" fill="#D49470"/><path d="M72 94c3-44 25-68 57-68 33 0 56 25 60 68-20-8-40-10-59-7-20 3-39 8-58 7Z" fill="#3A241E"/><path d="M92 101c8-5 17-5 24 0M140 101c8-5 17-5 24 0" fill="none" stroke="#3B2B25" stroke-width="4" stroke-linecap="round"/><ellipse cx="103" cy="113" rx="5.2" ry="6.2" fill="#28201D"/><ellipse cx="153" cy="113" rx="5.2" ry="6.2" fill="#28201D"/><circle cx="105" cy="111" r="1.5" fill="#fff"/><circle cx="155" cy="111" r="1.5" fill="#fff"/><path d="M95 111l-7-4m72 4 7-4" stroke="#2A211E" stroke-width="2.4" stroke-linecap="round"/><path d="M128 118c-3 10-5 18-2 22 2 2 5 3 9 1" fill="none" stroke="#A9664C" stroke-width="2.5" stroke-linecap="round"/><circle cx="92" cy="132" r="9" fill="#F08A86" opacity=".12"/><circle cx="164" cy="132" r="9" fill="#F08A86" opacity=".12"/><path d="M110 147c10 9 26 9 36 0" fill="none" stroke="#A64E4B" stroke-width="4" stroke-linecap="round"/></svg>